<svg width="40" height="40" xmlns="http://www.w3.org/2000/svg" version="1.1">

 <g>
  <title>Layer 1</title>
  <path stroke="null" id="svg_1" fill="#05A3AE" d="m7.99546,2.84339c0.10708,-0.00013 0.21415,-0.00028 0.32123,-0.00045c0.29343,-0.00041 0.58686,-0.0005 0.88029,-0.00053c0.31679,-0.00009 0.63357,-0.00047 0.95036,-0.00081c0.72834,-0.00072 1.45669,-0.00101 2.18503,-0.00125c0.36023,-0.00012 0.72046,-0.0003 1.08069,-0.00049c1.2341,-0.00065 2.46819,-0.00119 3.70229,-0.00136c0.07739,-0.00001 0.15478,-0.00002 0.23218,-0.00003c0.07757,-0.00001 0.15515,-0.00002 0.23272,-0.00003c0.15562,-0.00002 0.31123,-0.00004 0.46685,-0.00007c0.03858,-0.00001 0.07717,-0.00001 0.11692,-0.00002c1.25091,-0.00018 2.50182,-0.00099 3.75272,-0.00216c1.32383,-0.00124 2.64766,-0.00193 3.9715,-0.00199c0.14545,-0.00001 0.29089,-0.00002 0.43634,-0.00003c0.03581,0 0.07162,-0.00001 0.10852,-0.00001c0.57508,-0.00006 1.15015,-0.00061 1.72523,-0.00135c0.57847,-0.00073 1.15693,-0.00087 1.7354,-0.00048c0.31308,0.0002 0.62616,0.00015 0.93924,-0.00056c0.28704,-0.00064 0.57406,-0.00058 0.8611,0.00003c0.10341,0.0001 0.20683,-0.00006 0.31024,-0.0005c1.38669,-0.00555 2.64691,0.27502 3.66139,1.27794c0.99734,1.01807 1.32697,2.22906 1.32443,3.63284c0.00023,0.07933 0.00049,0.15866 0.0008,0.238c0.00071,0.21628 0.0008,0.43256 0.00078,0.64884c0.00008,0.23395 0.00074,0.46789 0.00132,0.70184c0.00115,0.51074 0.00155,1.02149 0.00181,1.53223c0.00017,0.31939 0.00049,0.63878 0.00086,0.95818c0.00099,0.88572 0.00182,1.77144 0.00196,2.65716c0.00001,0.05659 0.00002,0.11319 0.00003,0.1715c0.00002,0.11471 0.00004,0.22942 0.00006,0.34413c0.00001,0.05694 0.00002,0.11387 0.00003,0.17253c0.00001,0.08551 0.00001,0.08551 0.00003,0.17275c0.00018,0.92315 0.00154,1.8463 0.00343,2.76945c0.00193,0.94963 0.0029,1.89925 0.00291,2.84888c0.00003,0.53244 0.00045,1.06487 0.00192,1.59731c0.00124,0.45346 0.0016,0.9069 0.00085,1.36036c-0.00036,0.23094 -0.00033,0.46185 0.00083,0.69279c0.0069,1.46612 -0.07838,2.84701 -1.0408,4.03168c-0.0352,0.04665 -0.07039,0.09329 -0.10665,0.14135c-0.03142,0.03663 -0.06284,0.07325 -0.09522,0.11099c-0.03331,0 -0.06662,0 -0.10094,0c-0.01295,0.02836 -0.02589,0.05673 -0.03923,0.08595c-0.30051,0.56453 -1.19529,0.8986 -1.76914,1.09236c-0.58124,0.16701 -1.17329,0.17684 -1.77486,0.18433c-0.03962,0.00059 -0.07925,0.00119 -0.12007,0.0018c-0.1417,0.00125 -0.2688,0.00202 -0.40669,-0.03334c-0.02602,-0.00625 -0.05205,-0.01249 -0.07886,-0.01893c-0.01665,0.03331 -0.03331,0.06662 -0.05047,0.10094c-0.03331,-0.01665 -0.06662,-0.03331 -0.10094,-0.05047c-0.11803,-0.00374 -0.23617,-0.00421 -0.35426,-0.00315c-0.0351,0.00019 -0.07021,0.00038 -0.10638,0.00058c-0.15029,0.00082 -0.30057,0.00224 -0.45085,0.00361c-0.1097,0.00092 -0.21941,0.00152 -0.32911,0.00212c-0.09854,0.00088 -0.09854,0.00088 -0.19908,0.00177c-0.1753,-0.00493 -0.1753,-0.00493 -0.32171,-0.03667c-0.03496,-0.00618 -0.06991,-0.01236 -0.10593,-0.01873c-0.01665,0.03331 -0.03331,0.06662 -0.05047,0.10094c-0.08433,-0.01568 -0.16838,-0.03289 -0.25234,-0.05047c-0.15239,-0.00708 -0.30465,-0.00466 -0.45717,-0.00315c-0.09267,0.00042 -0.18534,0.00084 -0.27801,0.00126c-0.04841,0.00031 -0.09682,0.00062 -0.1467,0.00095c-0.80869,0.00515 -1.61482,0.00119 -2.42259,-0.04045c-0.0568,-0.0026 -0.1136,-0.0052 -0.17212,-0.00789c-0.04903,-0.00264 -0.09807,-0.00529 -0.14858,-0.00801c-0.03613,0.00225 -0.07225,0.00451 -0.10947,0.00683c-0.01665,0.03331 -0.03331,0.06662 -0.05047,0.10094c0,-0.03331 0,-0.06662 0,-0.10094c-0.16028,-0.0056 -0.31619,-0.00412 -0.47629,0.00118c-0.10798,0.00263 -0.21595,0.00525 -0.32393,0.00787c-0.08777,0.00241 -0.08777,0.00241 -0.17731,0.00488c-0.31747,0.00865 -0.63497,0.01569 -0.95248,0.02214c-0.03434,0.00071 -0.06867,0.00141 -0.10405,0.00214c-0.62275,0.01247 -1.24529,0.01401 -1.86815,0.01244c-0.04559,-0.0001 -0.09118,-0.0002 -0.13815,-0.0003c-0.45696,-0.00104 -0.91392,-0.00267 -1.37088,-0.00548c-0.17225,-0.00096 -0.3445,-0.00153 -0.51675,-0.002c-0.08067,-0.00032 -0.16134,-0.00083 -0.24201,-0.00154c-0.11118,-0.00097 -0.22234,-0.00131 -0.33352,-0.00152c-0.06253,-0.00038 -0.12506,-0.00075 -0.18948,-0.00114c-0.23859,0.01649 -0.47277,0.08344 -0.67535,0.21367c-0.0354,0.06638 -0.0689,0.1338 -0.10094,0.20187c-0.10094,0.11355 -0.10094,0.11355 -0.20187,0.20187c-0.03331,0 -0.06662,0 -0.10094,0c-0.01457,0.02915 -0.02915,0.05829 -0.04416,0.08832c-0.06701,0.13401 -0.1463,0.21712 -0.25865,0.31543c-0.03331,0 -0.06662,0 -0.10094,0c-0.01405,0.02835 -0.0281,0.0567 -0.04258,0.0859c-0.07372,0.1465 -0.1697,0.2404 -0.28546,0.35648c-0.04476,0.04489 -0.08952,0.08978 -0.13563,0.13603c-0.04684,0.04645 -0.09368,0.0929 -0.14194,0.14076c-0.04684,0.04723 -0.09368,0.09446 -0.14194,0.14312c-0.04476,0.04463 -0.08952,0.08926 -0.13563,0.13524c-0.04112,0.041 -0.08223,0.082 -0.12459,0.12425c-0.10251,0.08945 -0.10251,0.08945 -0.20345,0.08945c-0.03448,0.06687 -0.06797,0.13425 -0.10094,0.20187c-0.07713,0.08969 -0.07713,0.08969 -0.16946,0.18194c-0.03502,0.03523 -0.07004,0.07046 -0.10612,0.10676c-0.03841,0.03813 -0.07682,0.07625 -0.11639,0.11553c-0.04047,0.04056 -0.08093,0.08112 -0.12262,0.12291c-0.13399,0.13417 -0.26833,0.26798 -0.4027,0.40178c-0.09318,0.09312 -0.18635,0.18627 -0.2795,0.27943c-0.19537,0.19532 -0.39094,0.39045 -0.58663,0.58545c-0.2259,0.2251 -0.45153,0.45047 -0.67701,0.67599c-0.21723,0.21726 -0.4346,0.43437 -0.65206,0.65141c-0.09237,0.09221 -0.1847,0.18444 -0.27701,0.27671c-0.12914,0.12903 -0.25844,0.25788 -0.38778,0.38669c-0.0381,0.03813 -0.07621,0.07625 -0.11546,0.11553c-0.3482,0.34609 -0.59534,0.56815 -1.1036,0.59151c-0.26019,-0.0466 -0.43965,-0.20459 -0.60562,-0.40374c-0.13238,-0.2439 -0.12462,-0.50063 -0.13307,-0.77161c-0.00195,-0.05587 -0.00389,-0.11174 -0.0059,-0.1693c-0.01718,-0.59407 -0.01338,-1.18814 -0.01027,-1.78239c0.00025,-0.05164 0.0005,-0.10327 0.00076,-0.15647c0.0024,-0.48625 0.00504,-0.97249 0.00953,-1.45873c0.00244,-0.26853 0.00391,-0.53705 0.00473,-0.80559c0.0005,-0.10154 0.00137,-0.20307 0.00261,-0.3046c0.0017,-0.14076 0.00215,-0.28146 0.00232,-0.42223c0.0008,-0.04157 0.00161,-0.08315 0.00244,-0.12598c-0.00094,-0.17526 -0.0104,-0.28985 -0.10708,-0.43837c-0.15461,-0.0973 -0.25368,-0.09997 -0.43602,-0.09946c-0.06423,-0.00034 -0.12846,-0.00069 -0.19463,-0.00104c-0.03424,0.00029 -0.06849,0.00057 -0.10377,0.00087c-0.10815,0.00088 -0.21624,0.00049 -0.32439,-0.00021c-0.26905,-0.00149 -0.53809,-0.00084 -0.80714,-0.00024c-0.22679,0.00042 -0.45355,-0.00001 -0.68034,-0.00147c-0.10519,-0.00035 -0.21033,0.00048 -0.31552,0.00137c-0.62624,-0.00326 -1.21514,-0.12464 -1.77128,-0.42282c-0.03384,-0.0176 -0.06767,-0.0352 -0.10254,-0.05334c-0.24674,-0.13107 -0.47209,-0.27333 -0.68287,-0.45765c-0.04255,-0.03656 -0.08509,-0.07312 -0.12893,-0.11079c-0.21344,-0.18746 -0.40283,-0.3713 -0.57762,-0.59576c-0.03331,-0.03331 -0.06662,-0.06662 -0.10094,-0.10094c-0.52467,-0.62128 -0.81328,-1.61711 -0.81412,-2.41252c-0.00016,-0.05016 -0.00016,-0.05016 -0.00031,-0.10133c-0.00029,-0.11194 -0.00021,-0.22387 -0.00014,-0.33581c-0.00013,-0.08112 -0.00028,-0.16223 -0.00045,-0.24335c-0.00041,-0.22284 -0.0005,-0.44568 -0.00053,-0.66853c-0.00009,-0.24038 -0.00047,-0.48076 -0.00081,-0.72114c-0.00069,-0.52566 -0.00099,-1.05131 -0.00121,-1.57697c-0.00014,-0.32837 -0.00035,-0.65675 -0.00058,-0.98512c-0.00062,-0.90956 -0.00114,-1.81912 -0.00131,-2.72868c-0.00001,-0.05821 -0.00002,-0.11642 -0.00003,-0.17639c-0.00001,-0.05835 -0.00002,-0.11669 -0.00003,-0.1768c-0.00002,-0.11823 -0.00004,-0.23645 -0.00007,-0.35468c-0.00001,-0.05864 -0.00002,-0.11729 -0.00003,-0.17771c-0.0002,-0.94965 -0.00108,-1.89929 -0.00226,-2.84894c-0.0012,-0.9755 -0.00183,-1.95101 -0.00188,-2.92651c-0.00005,-0.5475 -0.00034,-1.09499 -0.00125,-1.64249c-0.00078,-0.46635 -0.00103,-0.93269 -0.00062,-1.39903c0.0002,-0.23774 0.00015,-0.47547 -0.00056,-0.71321c-0.00065,-0.21809 -0.00058,-0.43617 0.00003,-0.65426c0.0001,-0.07846 -0.00005,-0.15691 -0.0005,-0.23537c-0.00352,-0.66547 0.06586,-1.30919 0.33462,-1.92516c0.01533,-0.03595 0.03066,-0.0719 0.04645,-0.10893c0.48241,-1.09356 1.4343,-1.86208 2.52427,-2.29461c0.69055,-0.26537 1.3674,-0.23771 2.09808,-0.23735z"/>
  <path stroke="null" id="svg_2" fill="#F1F1E7" d="m24.42345,8.04237c0.03295,0.01373 0.06589,0.02746 0.09984,0.04161c1.02625,0.43569 1.92866,1.091 2.72969,1.86021c0.02583,0.02471 0.05166,0.04943 0.07828,0.07489c0.19663,0.19173 0.37026,0.39362 0.53634,0.6122c0.02554,0.03356 0.05109,0.06711 0.0774,0.10168c0.18864,0.25227 0.36273,0.51185 0.52851,0.77965c0.03298,0.05277 0.03298,0.05277 0.06663,0.1066c0.01993,0.03305 0.03985,0.06609 0.06038,0.10014c0.02631,0.04348 0.02631,0.04348 0.05315,0.08785c0.03727,0.0852 0.03727,0.0852 0.03727,0.27074c-0.08805,0.07742 -0.08805,0.07742 -0.2129,0.15438c-0.06953,0.0436 -0.06953,0.0436 -0.14046,0.08808c-0.05081,0.03097 -0.10163,0.06193 -0.15398,0.09384c-0.05279,0.03284 -0.10554,0.06575 -0.15824,0.09873c-0.10977,0.06861 -0.21972,0.13691 -0.32981,0.205c-0.2528,0.15674 -0.50259,0.31816 -0.75277,0.47903c-0.09553,0.06109 -0.19108,0.12215 -0.28665,0.18319c-0.19288,0.1233 -0.38538,0.24719 -0.57765,0.37145c-0.09265,0.05961 -0.1853,0.11923 -0.27795,0.17884c-0.04264,0.02772 -0.08529,0.05544 -0.12923,0.08401c-0.03945,0.02532 -0.07891,0.05063 -0.11955,0.07671c-0.0344,0.02224 -0.0688,0.04448 -0.10424,0.06739c-0.0961,0.05297 -0.17299,0.08575 -0.28188,0.09949c-0.0761,-0.079 -0.0761,-0.079 -0.15075,-0.19714c-0.02804,-0.04281 -0.05609,-0.08563 -0.08498,-0.12973c-0.02936,-0.0452 -0.05872,-0.09041 -0.08897,-0.13698c-0.12119,-0.17195 -0.24572,-0.34131 -0.37109,-0.51024c-0.02906,-0.03982 -0.05812,-0.07965 -0.08806,-0.12068c-0.22964,-0.30275 -0.49029,-0.53268 -0.79327,-0.76065c-0.05588,-0.04296 -0.05588,-0.04296 -0.11288,-0.08679c-0.87382,-0.64425 -1.88147,-0.90621 -2.95437,-0.9047c-0.03176,0.00004 -0.06353,0.00008 -0.09625,0.00012c-0.49836,0.0021 -0.95796,0.03334 -1.42868,0.20281c-0.03307,0.01169 -0.06613,0.02338 -0.1002,0.03542c-0.65246,0.23659 -1.1849,0.57495 -1.70884,1.03145c-0.029,0.02505 -0.058,0.05011 -0.08788,0.07592c-0.84923,0.78956 -1.38959,2.08232 -1.45066,3.22442c-0.05529,1.63733 0.29708,3.06782 1.43345,4.29116c0.35255,0.3641 0.72563,0.61669 1.17197,0.85071c0.06144,0.03301 0.06144,0.03301 0.12412,0.06668c0.26787,0.13331 0.5446,0.21568 0.83259,0.29281c0.03655,0.00979 0.07309,0.01958 0.11074,0.02966c1.29146,0.32849 2.74793,0.13206 3.89583,-0.5428c0.27544,-0.16834 0.50886,-0.36875 0.73873,-0.5945c0.09621,-0.08679 0.09621,-0.08679 0.18899,-0.08679c0.03158,-0.06152 0.06237,-0.12344 0.09277,-0.18554c0.0535,-0.06133 0.10879,-0.12112 0.16525,-0.17974c0.20888,-0.22908 0.36863,-0.47928 0.53144,-0.74163c0.04547,-0.07202 0.04547,-0.07202 0.09187,-0.1455c0.02314,-0.03797 0.04628,-0.07594 0.07012,-0.11506c0.02278,-0.02326 0.04556,-0.04652 0.06903,-0.07048c0.16609,0.02036 0.29336,0.10259 0.43523,0.18717c0.04972,0.02953 0.09945,0.05905 0.15067,0.08948c0.05403,0.03243 0.10805,0.06488 0.16207,0.09734c0.05604,0.03345 0.11209,0.06689 0.16814,0.10032c0.48549,0.29016 0.96748,0.58598 1.44812,0.8841c0.17862,0.11061 0.35814,0.21927 0.53923,0.32579c0.03925,0.02327 0.0785,0.04654 0.11894,0.07052c0.07205,0.04258 0.14437,0.08472 0.217,0.12631c0.23036,0.13686 0.23036,0.13686 0.27554,0.2506c0.04648,0.42514 -0.63104,1.15181 -0.89132,1.4771c-1.54958,1.89336 -3.72366,3.03875 -6.15978,3.28443c-0.35743,0.03224 -0.71479,0.03447 -1.07343,0.03281c-0.03733,-0.00007 -0.07467,-0.00014 -0.11313,-0.00021c-0.57087,-0.00189 -1.11888,-0.03422 -1.67852,-0.15344c-0.06884,-0.01312 -0.13769,-0.02617 -0.20656,-0.03914c-1.69454,-0.33326 -3.20928,-1.16122 -4.45376,-2.3514c-0.0481,-0.04598 -0.09643,-0.09173 -0.14496,-0.13725c-1.30979,-1.23187 -2.15091,-2.94878 -2.47729,-4.70838c-0.00694,-0.03733 -0.01387,-0.07465 -0.02102,-0.11311c-0.42879,-2.43133 0.0491,-4.99433 1.45898,-7.0303c0.27433,-0.38988 0.58181,-0.74882 0.9108,-1.09321c0.06096,-0.06397 0.12113,-0.1287 0.18126,-0.19345c0.35907,-0.37536 0.76151,-0.68163 1.18084,-0.98624c0.02795,-0.02075 0.05591,-0.0415 0.08471,-0.06287c1.18576,-0.87485 2.68068,-1.38401 4.1364,-1.56063c0.04251,-0.0052 0.08503,-0.0104 0.12883,-0.01576c1.65477,-0.16215 3.34664,0.06762 4.88083,0.71155z"/>
  <path id="svg_5" fill="#119BA2" d="m177,655c0,3 0,3 0,3l0,-3z"/>
  <path id="svg_6" fill="#119CA4" d="m233,714c0.33,0.66 0.66,1.32 1,2c-0.66,-0.33 -1.32,-0.66 -2,-1c0.33,-0.33 0.66,-0.66 1,-1z"/>
  <path id="svg_7" fill="#12A1AA" d="m658,173c3,1 3,1 3,1l-3,-1z"/>
  <path id="svg_8" fill="#0EA4AC" d="m608,719c2,1 2,1 2,1l-2,-1z"/>
  <path id="svg_9" fill="#10A0A6" d="m771,718c2,1 2,1 2,1l-2,-1z"/>
  <path id="svg_10" fill="#0EA2AA" d="m251,718c2,1 2,1 2,1l-2,-1z"/>
  <path id="svg_11" fill="#10A1A8" d="m777,717c2,1 2,1 2,1l-2,-1z"/>
  <path id="svg_12" fill="#109AA3"/>
  <path id="svg_13" fill="#149FA7"/>
  <path id="svg_14" fill="#139FA8"/>
  <path id="svg_15" fill="#0D9DA7" d="m803,184c2,1 2,1 2,1l-2,-1z"/>
  <path id="svg_16" fill="#0BA0AB" d="m782,176c2,1 2,1 2,1l-2,-1z"/>
  <path id="svg_17" fill="#13A0A9" d="m602,173c2,1 2,1 2,1l-2,-1z"/>
  <path id="svg_18" fill="#14A0AA" d="m554,173c2,1 2,1 2,1l-2,-1z"/>
  <path id="svg_19" fill="#12A0AA" d="m473,173c2,1 2,1 2,1l-2,-1z"/>
  <path id="svg_20" fill="#129FAA" d="m402,173c2,1 2,1 2,1l-2,-1z"/>
  <path id="svg_21" fill="#204442"/>
  <path id="svg_22" fill="#129FA5"/>
  <path id="svg_23" fill="#119FA6"/>
  <path id="svg_24" fill="#12A1A6"/>
  <path id="svg_25" fill="#10A1A7"/>
  <path id="svg_26" fill="#0EA2AA"/>
  <path id="svg_27" fill="#0FA1A9"/>
  <path id="svg_28" fill="#10A2AC"/>
  <path id="svg_29" fill="#10A5AD"/>
  <path id="svg_30" fill="#10A3AB"/>
  <path id="svg_31" fill="#0FA6AB"/>
  <path id="svg_32" fill="#10A4AC"/>
  <path id="svg_33" fill="#10A3AC"/>
  <path id="svg_34" fill="#10A5AD"/>
  <path id="svg_35" fill="#10A5AE"/>
  <path id="svg_36" fill="#0EA4AE"/>
  <path id="svg_37" fill="#10A6AC"/>
  <path id="svg_38" fill="#0EA3AE"/>
  <path id="svg_39" fill="#10A3AA"/>
  <path id="svg_40" fill="#0EA2AD"/>
  <path id="svg_41" fill="#0EA3AD"/>
  <path id="svg_42" fill="#0EA4AF"/>
  <path id="svg_43" fill="#0EA3AC"/>
  <path id="svg_44" fill="#11A4AC"/>
  <path id="svg_45" fill="#11A6AB"/>
  <path id="svg_46" fill="#11A6AD"/>
  <path id="svg_47" fill="#10A5AC"/>
  <path id="svg_48" fill="#0FA7AD"/>
  <path id="svg_49" fill="#10A3AE"/>
  <path id="svg_50" fill="#10A6B0"/>
  <path id="svg_51" fill="#11A1A8"/>
  <path id="svg_52" fill="#0FA0A7"/>
  <path id="svg_53" fill="#129BA2"/>
  <path id="svg_54" fill="#10A0A7"/>
  <path id="svg_55" fill="#119CA1"/>
  <path id="svg_56" fill="#12A0A4"/>
  <path id="svg_57" fill="#149DA2"/>
  <path id="svg_58" fill="#109FA7"/>
  <path id="svg_59" fill="#139AA0"/>
  <path id="svg_60" fill="#139AA2"/>
  <path id="svg_61" fill="#119CA4"/>
  <path id="svg_62" fill="#10A0A9"/>
  <path id="svg_63" fill="#129FA5"/>
  <path id="svg_64" fill="#149EA9"/>
  <path id="svg_65" fill="#14A0A8"/>
  <path id="svg_66" fill="#159FAA"/>
  <path id="svg_67" fill="#13A0A9"/>
  <path id="svg_68" fill="#13A1AA"/>
  <path id="svg_69" fill="#15A3AB"/>
  <path id="svg_70" fill="#13A0AA"/>
  <path id="svg_71" fill="#14A1A9"/>
  <path id="svg_72" fill="#14A0A9"/>
  <path id="svg_73" fill="#14A0A8"/>
  <path id="svg_74" fill="#139FA8"/>
  <path id="svg_75" fill="#12A0AA"/>
  <path id="svg_76" fill="#13A2A9"/>
  <path id="svg_77" fill="#139FA7"/>
  <path id="svg_78" fill="#139EA9"/>
  <path id="svg_79" fill="#149FA8"/>
  <path id="svg_80" fill="#14A0A9"/>
  <path id="svg_81" fill="#149FA7"/>
  <path id="svg_82" fill="#15A0A8"/>
  <path id="svg_83" fill="#129AA3"/>
  <path id="svg_84" fill="#159DA5"/>
  <path id="svg_85" fill="#129BA1"/>
  <path id="svg_86" fill="#1198A0"/>
  <path id="svg_87" fill="#13A0A9"/>
  <path id="svg_88" fill="#13A2AB"/>
  <path id="svg_89" fill="#13A0AB"/>
  <path id="svg_90" fill="#13A1AB"/>
  <path id="svg_91" fill="#13A0A9"/>
  <path id="svg_92" fill="#14A0A8"/>
  <path id="svg_93" fill="#11A2A9"/>
  <path id="svg_94" fill="#13A1A9"/>
  <path id="svg_95" fill="#14A0AA"/>
  <path id="svg_96" fill="#14A2AA"/>
  <path id="svg_97" fill="#11A2AB"/>
  <path id="svg_98" fill="#12A2AA"/>
  <path id="svg_99" fill="#12A2AA"/>
  <path id="svg_100" fill="#12A0AB"/>
  <path id="svg_101" fill="#12A1AB"/>
  <path id="svg_102" fill="#13A1AC"/>
  <path id="svg_103" fill="#14A1AB"/>
  <path id="svg_104" fill="#12A1A9"/>
  <path id="svg_105" fill="#14A1AB"/>
  <path id="svg_106" fill="#12A0A9"/>
  <path id="svg_107" fill="#13A0A9"/>
  <path id="svg_108" fill="#159DA8"/>
 </g>
</svg>